KRSPY-parametric-NarrowThinMaxGrade.ufo
<glyph name="zero" format="2">
  <advance width="151.5035035035035"/>
  <unicode hex="0030"/>
  <outline>
    <contour>
      <point x="19.736736736736738" y="0.0" type="line" identifier="4KX3b3mGg4"/>
      <point x="131.76676676676678" y="0.0" type="line" identifier="V2j8wYP0nr"/>
      <point x="131.76676676676678" y="1600.0" type="line" identifier="NaxGoenf3y"/>
      <point x="19.736736736736738" y="1600.0" type="line" identifier="rx6fJSLiri"/>
    </contour>
    <contour>
      <point x="28.655655655655657" y="7.985985985985986" type="line"/>
      <point x="28.655655655655657" y="1592.014014014014" type="line"/>
      <point x="122.84784784784785" y="1592.014014014014" type="line"/>
      <point x="122.84784784784785" y="7.985985985985986" type="line"/>
    </contour>
  </outline>
</glyph>
<glyph name="one" format="2">
  <advance width="116.15315315315316"/>
  <unicode hex="0031"/>
  <outline>
    <contour>
      <point x="3.6166166166166165" y="0.0" type="line"/>
      <point x="115.54454454454455" y="0.0" type="line" identifier="CURJAw79Zl"/>
      <point x="115.54454454454455" y="7.985985985985986" type="line" identifier="0DUCJo8xIi"/>
      <point x="64.04004004004004" y="7.985985985985986" type="line" identifier="5nmxQXofSG"/>
      <point x="64.04004004004004" y="1600.0" type="line" identifier="4rjIeWbSbx"/>
      <point x="0.6086086086086087" y="1600.0" type="line"/>
      <point x="0.6086086086086087" y="1592.014014014014" type="line"/>
      <point x="55.12112112112112" y="1592.014014014014" type="line"/>
      <point x="55.12112112112112" y="7.985985985985986" type="line"/>
      <point x="3.6166166166166165" y="7.985985985985986" type="line"/>
    </contour>
  </outline>
</glyph>
<glyph name="two" format="2">
  <advance width="133"/>
  <unicode hex="0032"/>
  <outline>
    <contour>
      <point x="12" y="0" type="line"/>
      <point x="122" y="0" type="line" identifier="pzdvPTirLJ"/>
      <point x="122" y="246" type="line" identifier="91SxUS0iwG"/>
      <point x="113" y="246" type="line" identifier="fP7EN0pUcl"/>
      <point x="113" y="8" type="line" identifier="eb458Bdvng"/>
      <point x="21" y="8" type="line"/>
      <point x="21" y="236" type="line" identifier="9fjc25rkUx"/>
      <point x="118" y="1274" type="line" identifier="yyb1NCCI5w"/>
      <point x="118" y="1600" type="line" identifier="5FogYRSgkk"/>
      <point x="15" y="1600" type="line" identifier="svlFvrau4c"/>
      <point x="15" y="1355" type="line" identifier="LQ9fBsTy9K"/>
      <point x="24" y="1355" type="line" identifier="jS6EyIAKtm"/>
      <point x="24" y="1592" type="line"/>
      <point x="109" y="1592" type="line" identifier="N6CMAjhNlU"/>
      <point x="109" y="1275" type="line" identifier="yK1d5IcluK"/>
      <point x="12" y="238" type="line" identifier="teVKnpBcVb"/>
    </contour>
  </outline>
</glyph>
<glyph name="three" format="2">
  <advance width="143.4874874874875"/>
  <unicode hex="0033"/>
  <outline>
    <contour>
      <point x="17.72872872872873" y="0.0" type="line" identifier="O9abUc1nmN"/>
      <point x="126.75875875875876" y="0.0" type="line" identifier="kMJYMTfXCq"/>
      <point x="126.75875875875876" y="811.3273273273273" type="line" identifier="su2XmdS8e8"/>
      <point x="96.70970970970971" y="811.3273273273273" type="line" identifier="JQaOzDQqlF"/>
      <point x="96.70970970970971" y="814.3123123123123" type="line"/>
      <point x="118.34234234234233" y="900.015015015015" type="line" identifier="S91TzLL02W"/>
      <point x="118.34234234234233" y="1600.0" type="line" identifier="xg8x2Ki40p"/>
      <point x="19.736736736736738" y="1600.0" type="line" identifier="pE1XSRiy68"/>
      <point x="19.736736736736738" y="1424.883883883884" type="line" identifier="5lNstGRcSF"/>
      <point x="28.655655655655657" y="1424.883883883884" type="line" identifier="AcE5xKDZfE"/>
      <point x="28.655655655655657" y="1591.883883883884" type="line" identifier="7ogBYufWpl"/>
      <point x="109.42342342342343" y="1591.883883883884" type="line" identifier="RHLvSX2Jv6"/>
      <point x="109.42342342342343" y="900.015015015015" type="line" identifier="YUjTrmoWd9"/>
      <point x="87.85485485485485" y="814.3203203203203" type="line"/>
      <point x="87.85485485485485" y="811.3273273273273" type="line" identifier="iic1IBkDqp"/>
      <point x="29.553553553553552" y="811.3273273273273" type="line" identifier="lRLJEhXMlO"/>
      <point x="29.553553553553552" y="805.6836836836837" type="line" identifier="8aKgEELrVU"/>
      <point x="117.83983983983984" y="805.6836836836837" type="line" identifier="Dm8zjmbhNr"/>
      <point x="117.83983983983984" y="7.985985985985986" type="line" identifier="xv9CFHiFgB"/>
      <point x="26.64764764764765" y="7.985985985985986" type="line" identifier="YajKQV3MHP"/>
      <point x="26.64764764764765" y="120.11611611611612" type="line" identifier="36SchVkwze"/>
      <point x="17.72872872872873" y="120.11611611611612" type="line" identifier="tVui9PiOjA"/>
    </contour>
  </outline>
</glyph>
<glyph name="four" format="2">
  <advance width="130.46346346346346"/>
  <unicode hex="0034"/>
  <outline>
    <contour>
      <point x="89.78378378378379" y="0.0" type="line"/>
      <point x="98.70270270270271" y="0.0" type="line"/>
      <point x="98.70270270270271" y="808.6166166166166" type="line"/>
      <point x="128.43143143143143" y="808.6166166166166" type="line"/>
      <point x="128.43143143143143" y="816.6026026026026" type="line"/>
      <point x="98.70270270270271" y="816.6026026026026" type="line"/>
      <point x="98.70270270270271" y="1600.0" type="line"/>
      <point x="89.78378378378379" y="1600.0" type="line"/>
      <point x="89.78378378378379" y="816.6026026026026" type="line"/>
      <point x="13.623623623623622" y="816.6026026026026" type="line"/>
      <point x="13.623623623623622" y="897.0820820820821" type="line"/>
      <point x="51.234234234234236" y="1680.0" type="line"/>
      <point x="43.46746746746747" y="1680.0" type="line"/>
      <point x="4.704704704704705" y="896.0820820820821" type="line"/>
      <point x="4.704704704704705" y="808.6166166166166" type="line"/>
      <point x="89.78378378378379" y="808.6166166166166" type="line"/>
    </contour>
  </outline>
</glyph>
<glyph name="six" format="2">
  <advance width="137.4794794794795"/>
  <unicode hex="0036"/>
  <outline>
    <contour>
      <point x="13.707707707707707" y="0.0" type="line" identifier="uiw6aBUf4P"/>
      <point x="122.75075075075075" y="0.0" type="line" identifier="jtYkxiUX6G"/>
      <point x="122.75075075075075" y="802.6916916916917" type="line" identifier="2G5L37c87I"/>
      <point x="22.626626626626628" y="802.6916916916917" type="line"/>
      <point x="22.626626626626628" y="1433.7947947947948" type="line"/>
      <point x="59.30830830830831" y="1592.014014014014" type="line"/>
      <point x="113.82382382382383" y="1592.014014014014" type="line"/>
      <point x="113.82382382382383" y="1355.3153153153153" type="line"/>
      <point x="122.72972972972973" y="1355.3153153153153" type="line" identifier="Wuidbv6mUe"/>
      <point x="122.72972972972973" y="1600.0" type="line" identifier="oGvEEuxnYv"/>
      <point x="50.8008008008008" y="1600.0" type="line" identifier="xR3pEHbMJx"/>
      <point x="13.707707707707707" y="1434.7947947947948" type="line" identifier="KnMArb0tv8"/>
    </contour>
    <contour>
      <point x="113.83183183183183" y="795.7467467467468" type="line"/>
      <point x="113.83183183183183" y="7.985985985985986" type="line"/>
      <point x="22.626626626626628" y="7.985985985985986" type="line"/>
      <point x="22.626626626626628" y="795.7467467467468" type="line"/>
    </contour>
  </outline>
</glyph>
<glyph name="seven" format="2">
  <advance width="138.4794794794795"/>
  <unicode hex="0037"/>
  <outline>
    <contour>
      <point x="67.88188188188188" y="0.0" type="line"/>
      <point x="76.80080080080079" y="0.0" type="line" identifier="PiPrv7Kcoy"/>
      <point x="121.74274274274273" y="1484.7137137137136" type="line" identifier="PkvwNC9Tx1"/>
      <point x="121.74274274274273" y="1600.0" type="line" identifier="tgqM27bPOm"/>
      <point x="12.72072072072072" y="1600.0" type="line" identifier="36ml4xRICt"/>
      <point x="12.72072072072072" y="1354.014014014014" type="line" identifier="aaDZsh5Mah"/>
      <point x="21.63963963963964" y="1354.014014014014" type="line"/>
      <point x="21.63963963963964" y="1592.014014014014" type="line"/>
      <point x="112.82382382382383" y="1592.014014014014" type="line"/>
      <point x="112.82382382382383" y="1491.2112112112113" type="line"/>
    </contour>
  </outline>
</glyph>
<glyph name="eight" format="2">
  <advance width="175.55155155155154"/>
  <unicode hex="0038"/>
  <outline>
    <contour>
      <point x="103.57357357357358" y="796.6576576576576" type="line"/>
      <point x="139.87987987987987" y="750.3973973973974" type="line"/>
      <point x="139.87987987987987" y="7.985985985985986" type="line"/>
      <point x="35.671671671671675" y="7.985985985985986" type="line"/>
      <point x="35.671671671671675" y="750.3973973973974" type="line"/>
      <point x="71.97797797797797" y="796.6576576576576" type="line"/>
    </contour>
    <contour>
      <point x="111.71271271271272" y="799.0" type="line"/>
      <point x="111.71271271271272" y="801.0" type="line"/>
      <point x="145.7907907907908" y="844.6016016016016" type="line"/>
      <point x="145.7907907907908" y="1600.0" type="line"/>
      <point x="29.76076076076076" y="1600.0" type="line"/>
      <point x="29.76076076076076" y="844.6016016016016" type="line"/>
      <point x="63.86486486486486" y="801.0" type="line"/>
      <point x="63.86486486486486" y="799.0" type="line"/>
      <point x="26.75275275275275" y="752.3983983983984" type="line"/>
      <point x="26.75275275275275" y="0.0" type="line"/>
      <point x="148.7987987987988" y="0.0" type="line"/>
      <point x="148.7987987987988" y="752.3983983983984" type="line"/>
    </contour>
    <contour>
      <point x="71.97797797797797" y="803.3423423423424" type="line"/>
      <point x="38.67967967967968" y="846.6026026026026" type="line"/>
      <point x="38.67967967967968" y="1592.014014014014" type="line"/>
      <point x="136.87187187187186" y="1592.014014014014" type="line"/>
      <point x="136.87187187187186" y="846.6026026026026" type="line"/>
      <point x="103.57357357357358" y="803.3423423423424" type="line"/>
    </contour>
  </outline>
</glyph>
<glyph name="nine" format="2">
  <advance width="137.4794794794795"/>
  <unicode hex="0039"/>
  <outline>
    <contour>
      <point x="123.75075075075075" y="1600.0" type="line" identifier="uiw6aBUf4P"/>
      <point x="14.707707707707707" y="1600.0" type="line" identifier="jtYkxiUX6G"/>
      <point x="14.707707707707707" y="797.048048048048" type="line" identifier="2G5L37c87I"/>
      <point x="114.83183183183183" y="797.048048048048" type="line"/>
      <point x="114.83183183183183" y="7.985985985985986" type="line"/>
      <point x="23.64764764764765" y="7.985985985985986" type="line"/>
      <point x="23.64764764764765" y="244.55455455455456" type="line"/>
      <point x="14.72872872872873" y="244.55455455455456" type="line" identifier="Wuidbv6mUe"/>
      <point x="14.72872872872873" y="0.0" type="line" identifier="oGvEEuxnYv"/>
      <point x="123.75075075075075" y="0.0" type="line" identifier="xR3pEHbMJx"/>
    </contour>
    <contour>
      <point x="23.626626626626628" y="803.8628628628628" type="line"/>
      <point x="23.626626626626628" y="1592.014014014014" type="line"/>
      <point x="114.83183183183183" y="1592.014014014014" type="line"/>
      <point x="114.83183183183183" y="803.8628628628628" type="line"/>
    </contour>
  </outline>
</glyph>
<glyph name="B" format="2">
  <advance width="164.91191191191191"/>
  <unicode hex="0042"/>
  <outline>
    <contour>
      <point x="33.371371371371374" y="0.0" type="line" identifier="hvY9r8RmLr"/>
      <point x="143.40140140140142" y="0.0" type="line" identifier="9QFpw7nfq7"/>
      <point x="143.40140140140142" y="760.3903903903904" type="line" identifier="543PerILpr"/>
      <point x="108.53653653653653" y="799.0" type="line" identifier="zhomauHW30"/>
      <point x="108.53653653653653" y="801.0" type="line" identifier="870ZhtaozS"/>
      <point x="140.3933933933934" y="844.5935935935936" type="line" identifier="eGKH52Jgnk"/>
      <point x="140.3933933933934" y="1600.0" type="line" identifier="FaP204GrdB"/>
      <point x="33.371371371371374" y="1600.0" type="line" identifier="JEev70GAj6"/>
    </contour>
    <contour>
      <point x="42.290290290290294" y="803.6026026026026" type="line" identifier="By7dfMihfe"/>
      <point x="42.290290290290294" y="1591.987987987988" type="line" identifier="1p5hKrurVy"/>
      <point x="131.47447447447448" y="1591.987987987988" type="line" identifier="Qby8aMtF2X"/>
      <point x="131.47447447447448" y="847.3953953953953" type="line" identifier="9lW01gQyU2"/>
      <point x="100.3973973973974" y="803.6026026026026" type="line" identifier="xpxyvIzPoc"/>
    </contour>
    <contour>
      <point x="42.290290290290294" y="7.985985985985986" type="line" identifier="jaMSiLrCua"/>
      <point x="42.290290290290294" y="796.3973973973974" type="line" identifier="XSrxNd2axx"/>
      <point x="100.3973973973974" y="796.3973973973974" type="line" identifier="VyYlzRh5nq"/>
      <point x="134.48248248248248" y="757.5885885885886" type="line" identifier="lsRGatjQja"/>
      <point x="134.48248248248248" y="7.985985985985986" type="line" identifier="xhlDJ3CjD5"/>
    </contour>
  </outline>
</glyph>
<glyph name="C" format="2">
  <advance width="155.91691691691693"/>
  <unicode hex="0043"/>
  <outline>
    <contour>
      <point x="25.426426426426428" y="0.0" type="line" identifier="7lPhzTnk2Z"/>
      <point x="135.44844844844846" y="0.0" type="line" identifier="qJVLZGnkwh"/>
      <point x="135.44844844844846" y="231.33733733733732" type="line" identifier="nDnDHzAMXL"/>
      <point x="126.52952952952953" y="231.33733733733732" type="line" identifier="QX1V08aTu0"/>
      <point x="126.52952952952953" y="7.985985985985986" type="line" identifier="Y750RHTvDj"/>
      <point x="34.34534534534534" y="7.985985985985986" type="line" identifier="L2LsGnXiZ2"/>
      <point x="34.34534534534534" y="1291.3183183183182" type="line" identifier="sUWsr03vF4"/>
      <point x="78.24424424424424" y="1592.014014014014" type="line" identifier="dbOUe6OhxL"/>
      <point x="125.52952952952953" y="1592.014014014014" type="line" identifier="5BjRbcud80"/>
      <point x="125.52952952952953" y="1188.2252252252254" type="line" identifier="fNVDqwQo2o"/>
      <point x="134.44844844844846" y="1188.2252252252254" type="line" identifier="wLqQQx7QVN"/>
      <point x="134.44844844844846" y="1600.0" type="line" identifier="9eJelv8BOw"/>
      <point x="70.3153153153153" y="1600.0" type="line" identifier="lfZev3ICaC"/>
      <point x="25.426426426426428" y="1292.7057057057057" type="line" identifier="V1EWIdPahq"/>
    </contour>
  </outline>
</glyph>
<glyph name="J" format="2">
  <advance width="153.97997997998"/>
  <unicode hex="004A"/>
  <outline>
    <contour>
      <point x="51.65865865865866" y="0.0" type="line" identifier="jiO9eX9U07"/>
      <point x="120.6086086086086" y="0.0" type="line" identifier="wgpFs1yguc"/>
      <point x="120.6086086086086" y="1600.0" type="line" identifier="d5Di3vNzni"/>
      <point x="13.586586586586586" y="1600.0" type="line" identifier="TbrXnCyMEi"/>
      <point x="13.586586586586586" y="1592.014014014014" type="line" identifier="AdYfGKx8QJ"/>
      <point x="111.68968968968969" y="1592.014014014014" type="line" identifier="46RrD1WET2"/>
      <point x="111.68968968968969" y="7.985985985985986" type="line" identifier="zFXsE8BUYG"/>
      <point x="60.27827827827828" y="7.985985985985986" type="line" identifier="NQmE31PUns"/>
      <point x="20.484484484484486" y="351.98598598598596" type="line" identifier="qiXxY6YhCq"/>
      <point x="11.578578578578577" y="351.98598598598596" type="line" identifier="7exNZv1XSc"/>
    </contour>
  </outline>
</glyph>
<glyph name="M" format="2">
  <advance width="253.2052052052052"/>
  <unicode hex="004D"/>
  <outline>
    <contour>
      <point x="116.84984984984986" y="80.0" type="line" identifier="0Dn4Xpf57M"/>
      <point x="57.94394394394395" y="1592.014014014014" type="line"/>
      <point x="42.63763763763764" y="1592.014014014014" type="line"/>
      <point x="42.63763763763764" y="0.0" type="line"/>
      <point x="33.71871871871872" y="0.0" type="line"/>
      <point x="33.71871871871872" y="1600.0" type="line"/>
      <point x="64.6076076076076" y="1600.0" type="line"/>
      <point x="123.48548548548548" y="87.46546546546547" type="line"/>
      <point x="129.71971971971973" y="87.46546546546547" type="line" identifier="9aKZPM0HPh"/>
      <point x="188.5975975975976" y="1600.0" type="line"/>
      <point x="219.48648648648648" y="1600.0" type="line"/>
      <point x="219.48648648648648" y="0.0" type="line"/>
      <point x="210.56756756756758" y="0.0" type="line"/>
      <point x="210.56756756756758" y="1592.014014014014" type="line"/>
      <point x="195.26126126126124" y="1592.014014014014" type="line"/>
      <point x="136.35535535535536" y="80.0" type="line" identifier="spdoeeCFft"/>
    </contour>
  </outline>
</glyph>
<glyph name="O" format="2">
  <advance width="167.4934934934935"/>
  <unicode hex="004F"/>
  <outline>
    <contour>
      <point x="139.76176176176176" y="160.6096096096096" type="line" identifier="ob8US3C311"/>
      <point x="139.76176176176176" y="1600.0" type="line" identifier="c9brEFyXXA"/>
      <point x="62.83683683683683" y="1600.0" type="line" identifier="a4Ql951bxG"/>
      <point x="27.73173173173173" y="1432.4334334334335" type="line" identifier="kbL68Qh2zr"/>
      <point x="27.73173173173173" y="0.0" type="line" identifier="U6WibAQAUl"/>
      <point x="105.64864864864866" y="0.0" type="line" identifier="dfgNHTgBfR"/>
    </contour>
    <contour>
      <point x="130.84284284284283" y="161.42842842842845" type="line" identifier="SnrsQD5TLy"/>
      <point x="97.94694694694695" y="7.985985985985986" type="line" identifier="jjd5iRDXWT"/>
      <point x="36.65065065065065" y="7.985985985985986" type="line" identifier="YbQKHpAtYn"/>
      <point x="36.65065065065065" y="1430.6746746746749" type="line" identifier="vdfGLkskOQ"/>
      <point x="70.53853853853853" y="1592.014014014014" type="line" identifier="qXlVxK5ShE"/>
      <point x="130.84284284284283" y="1592.014014014014" type="line" identifier="g70r2r6DwY"/>
    </contour>
  </outline>
</glyph>
<glyph name="Q" format="2">
  <advance width="173.36736736736736"/>
  <unicode hex="0051"/>
  <outline>
    <contour>
      <point x="139.76176176176176" y="1600.0" type="line" identifier="c9brEFyXXA"/>
      <point x="62.59659659659659" y="1600.0" type="line" identifier="a4Ql951bxG"/>
      <point x="27.73173173173173" y="1293.3303303303303" type="line" identifier="kbL68Qh2zr"/>
      <point x="27.73173173173173" y="0.0" type="line" identifier="U6WibAQAUl"/>
      <point x="139.76176176176176" y="0.0" type="line" identifier="dfgNHTgBfR"/>
    </contour>
    <contour>
      <point x="130.84284284284283" y="7.985985985985986" type="line" identifier="jjd5iRDXWT"/>
      <point x="36.65065065065065" y="7.985985985985986" type="line" identifier="YbQKHpAtYn"/>
      <point x="36.65065065065065" y="1294.3303303303303" type="line" identifier="vdfGLkskOQ"/>
      <point x="70.36336336336336" y="1592.014014014014" type="line" identifier="qXlVxK5ShE"/>
      <point x="130.84284284284283" y="1592.014014014014" type="line" identifier="g70r2r6DwY"/>
    </contour>
    <contour>
      <point x="81.35235235235236" y="-149.96796796796795" type="line"/>
      <point x="88.21321321321322" y="-149.96796796796795" type="line"/>
      <point x="88.21321321321322" y="1.983983983983984" type="line"/>
      <point x="81.35235235235236" y="1.983983983983984" type="line"/>
    </contour>
  </outline>
</glyph>
<glyph name="R" format="2">
  <advance width="169.53553553553553"/>
  <unicode hex="0052"/>
  <outline>
    <contour>
      <point x="40.67967967967968" y="802.6916916916917" type="line"/>
      <point x="40.67967967967968" y="1592.014014014014" type="line"/>
      <point x="129.86386386386386" y="1592.014014014014" type="line"/>
      <point x="129.86386386386386" y="845.6836836836837" type="line"/>
      <point x="98.7997997997998" y="802.6916916916917" type="line"/>
    </contour>
    <contour>
      <point x="142.7827827827828" y="0.0" type="line"/>
      <point x="142.7827827827828" y="759.097097097097" type="line"/>
      <point x="107.91791791791792" y="797.6986986986986" type="line"/>
      <point x="107.91791791791792" y="799.6986986986986" type="line"/>
      <point x="138.7827827827828" y="843.3003003003003" type="line"/>
      <point x="138.7827827827828" y="1600.0" type="line"/>
      <point x="31.76076076076076" y="1600.0" type="line"/>
      <point x="31.76076076076076" y="0.0" type="line"/>
      <point x="40.67967967967968" y="0.0" type="line"/>
      <point x="40.67967967967968" y="794.7057057057057" type="line"/>
      <point x="98.7997997997998" y="794.7057057057057" type="line"/>
      <point x="133.86386386386386" y="756.7057057057057" type="line"/>
      <point x="133.86386386386386" y="0.0" type="line"/>
    </contour>
  </outline>
</glyph>
<glyph name="S" format="2">
  <advance width="157.23523523523522"/>
  <unicode hex="0053"/>
  <outline>
    <contour>
      <point x="24.66866866866867" y="0.0" type="line" identifier="09VlJ0BjUX"/>
      <point x="129.64564564564566" y="0.0" type="line" identifier="EagWihqFM8"/>
      <point x="129.64564564564566" y="811.6326326326326" type="line" identifier="KfNuQA7eZe"/>
      <point x="34.550550550550554" y="811.6326326326326" type="line" identifier="At364YZFEy"/>
      <point x="34.550550550550554" y="1592.4044044044044" type="line" identifier="BcuLfvaQKC"/>
      <point x="120.72672672672672" y="1592.4044044044044" type="line" identifier="3ZUkG35meB"/>
      <point x="120.72672672672672" y="1356.109109109109" type="line" identifier="DTOJhFIl15"/>
      <point x="129.64564564564566" y="1356.109109109109" type="line" identifier="9KDcrfQ5Ui"/>
      <point x="129.64564564564566" y="1600.0" type="line" identifier="SaF9ojRFrW"/>
      <point x="25.63163163163163" y="1600.0" type="line" identifier="F4sQEYelA8"/>
      <point x="25.63163163163163" y="804.2652652652653" type="line" identifier="3sQ8t8BZ6b"/>
      <point x="120.72672672672672" y="804.2652652652653" type="line" identifier="yiV6OCBLHg"/>
      <point x="120.72672672672672" y="7.985985985985986" type="line" identifier="9kdl9SYsn8"/>
      <point x="33.57457457457458" y="7.985985985985986" type="line" identifier="yZDWuX8LLe"/>
      <point x="33.57457457457458" y="247.08608608608608" type="line" identifier="jYb9001DTm"/>
      <point x="24.66866866866867" y="247.08608608608608" type="line" identifier="ho4DrS0rdW"/>
    </contour>
  </outline>
</glyph>
<glyph name="U" format="2">
  <advance width="171.47247247247248"/>
  <unicode hex="0055"/>
  <outline>
    <contour>
      <point x="128.85585585585585" y="1600.0" type="line" smooth="yes"/>
      <point x="128.85585585585585" y="7.985985985985986" type="line"/>
      <point x="80.3993993993994" y="7.985985985985986" type="line" smooth="yes"/>
      <point x="36.671671671671675" y="309.4034034034034" type="line" smooth="yes"/>
      <point x="36.671671671671675" y="1600.0" type="line"/>
      <point x="27.75275275275275" y="1600.0" type="line" smooth="yes"/>
      <point x="27.75275275275275" y="309.4034034034034" type="line" smooth="yes"/>
      <point x="72.64164164164164" y="0.0" type="line" smooth="yes"/>
      <point x="137.77477477477478" y="0.0" type="line" smooth="yes"/>
      <point x="137.77477477477478" y="1600.0" type="line" smooth="yes"/>
    </contour>
  </outline>
</glyph>
<glyph name="V" format="2">
  <advance width="171.47247247247248"/>
  <unicode hex="0056"/>
  <outline>
    <contour>
      <point x="42.545545545545544" y="1600.0" type="line" smooth="yes"/>
      <point x="42.545545545545544" y="7.985985985985986" type="line"/>
      <point x="89.998998998999" y="7.985985985985986" type="line" smooth="yes"/>
      <point x="134.72972972972974" y="309.4034034034034" type="line" smooth="yes"/>
      <point x="134.72972972972974" y="1600.0" type="line"/>
      <point x="143.64864864864865" y="1600.0" type="line" smooth="yes"/>
      <point x="143.64864864864865" y="309.4034034034034" type="line" smooth="yes"/>
      <point x="97.68768768768768" y="0.0" type="line" smooth="yes"/>
      <point x="33.626626626626624" y="0.0" type="line" smooth="yes"/>
      <point x="33.626626626626624" y="1600.0" type="line" smooth="yes"/>
    </contour>
  </outline>
</glyph>
<glyph name="W" format="2">
  <advance width="269.36736736736736"/>
  <unicode hex="0057"/>
  <outline>
    <contour>
      <point x="49.34034034034034" y="1600.0" type="line" smooth="yes" identifier="12Pyby1xY2"/>
      <point x="47.38238238238238" y="1572.3943943943943" type="line" smooth="yes" identifier="5LJg4ajoG6"/>
      <point x="45.9039039039039" y="6.028028028028028" type="line" smooth="yes" identifier="ZqTZqAY3uY"/>
      <point x="96.18418418418419" y="9.567567567567568" type="line" smooth="yes" identifier="rCeQLyjlsN"/>
      <point x="137.28828828828827" y="269.1571571571572" type="line"/>
      <point x="137.27527527527528" y="293.06306306306305" type="line"/>
      <point x="130.82682682682682" y="33.633633633633636" type="line" smooth="yes" identifier="Pkl7cZ37MU"/>
      <point x="181.74674674674677" y="9.408408408408409" type="line" smooth="yes" identifier="R4lklfJsHA"/>
      <point x="224.8218218218218" y="305.5955955955956" type="line" smooth="yes" identifier="7g7f8Wu7K4"/>
      <point x="223.50350350350348" y="1572.3943943943943" type="line" smooth="yes" identifier="RTOJW56qXy"/>
      <point x="220.74574574574575" y="1576.1891891891892" type="line" identifier="JfSFAkWGZC"/>
      <point x="220.74574574574575" y="334.1801801801802" type="line" smooth="yes" identifier="WWvGwSpq0g"/>
      <point x="170.70170170170172" y="35.59159159159159" type="line" smooth="yes" identifier="oee4nqI8Wl"/>
      <point x="123.71071071071071" y="11.633633633633632" type="line" identifier="Ljn2lpvpG8"/>
      <point x="125.68468468468468" y="259.42942942942943" type="line"/>
      <point x="136.04304304304304" y="1566.3663663663663" type="line" smooth="yes"/>
      <point x="134.08508508508507" y="1572.5135135135133" type="line"/>
      <point x="134.25325325325323" y="268.5135135135135" type="line"/>
      <point x="134.31731731731733" y="262.3663663663664" type="line"/>
      <point x="104.51751751751752" y="1.9579579579579578" type="line" identifier="GlWB6PG54Z"/>
      <point x="57.526526526526524" y="35.59159159159159" type="line" identifier="iqeTRv7HXg"/>
    </contour>
  </outline>
</glyph>
<glyph name="X" format="2">
  <advance width="175.55155155155154"/>
  <unicode hex="0058"/>
  <outline>
    <contour>
      <point x="103.57357357357358" y="796.007007007007" type="line"/>
      <point x="139.87987987987987" y="750.007007007007" type="line"/>
      <point x="139.87987987987987" y="0.0" type="line"/>
      <point x="148.7987987987988" y="0.0" type="line"/>
      <point x="148.7987987987988" y="752.3983983983984" type="line"/>
      <point x="111.6996996996997" y="799.0" type="line"/>
      <point x="111.6996996996997" y="801.0" type="line"/>
      <point x="144.7987987987988" y="844.6016016016016" type="line"/>
      <point x="144.7987987987988" y="1600.0" type="line"/>
      <point x="135.8928928928929" y="1600.0" type="line"/>
      <point x="135.8928928928929" y="846.992992992993" type="line"/>
      <point x="103.57357357357358" y="803.992992992993" type="line"/>
      <point x="71.97797797797797" y="803.992992992993" type="line"/>
      <point x="39.65865865865866" y="846.992992992993" type="line"/>
      <point x="39.65865865865866" y="1600.0" type="line"/>
      <point x="30.75275275275275" y="1600.0" type="line"/>
      <point x="30.75275275275275" y="844.6016016016016" type="line"/>
      <point x="63.851851851851855" y="801.0" type="line"/>
      <point x="63.851851851851855" y="799.0" type="line"/>
      <point x="26.75275275275275" y="752.3983983983984" type="line"/>
      <point x="26.75275275275275" y="0.0" type="line"/>
      <point x="35.671671671671675" y="0.0" type="line"/>
      <point x="35.671671671671675" y="750.007007007007" type="line"/>
      <point x="71.97797797797797" y="796.007007007007" type="line"/>
    </contour>
  </outline>
</glyph>
<glyph name="Y" format="2">
  <advance width="149.03503503503504"/>
  <unicode hex="0059"/>
  <outline>
    <contour>
      <point x="70.07907907907908" y="0.0" type="line" identifier="XKjckKJ7m9"/>
      <point x="78.98498498498499" y="0.0" type="line" identifier="WihjL321cU"/>
      <point x="78.98498498498499" y="769.9169169169169" type="line" identifier="rvzWMWl6O1"/>
      <point x="128.5325325325325" y="815.1981981981983" type="line" identifier="YbKEFhFR3q"/>
      <point x="128.5325325325325" y="1600.0" type="line" identifier="wnC8PudY2b"/>
      <point x="119.61361361361362" y="1600.0" type="line" identifier="spI4xe8t4f"/>
      <point x="119.61361361361362" y="821.3433433433433" type="line" identifier="Jw55i2s2Mm"/>
      <point x="75.52552552552552" y="778.5035035035036" type="line" identifier="9ncbEH2hEb"/>
      <point x="73.53853853853853" y="778.5035035035036" type="line" identifier="u7HFbTQwMo"/>
      <point x="29.40840840840841" y="821.3433433433433" type="line" identifier="oy8ifCCtGL"/>
      <point x="29.40840840840841" y="1600.0" type="line" identifier="ah5yat5gKV"/>
      <point x="20.5025025025025" y="1600.0" type="line" identifier="fJXhpKV79E"/>
      <point x="20.5025025025025" y="815.1981981981983" type="line" identifier="k3vH9oxqcN"/>
      <point x="70.07907907907908" y="769.9169169169169" type="line" identifier="3Kveia3O9h"/>
    </contour>
  </outline>
</glyph>
<glyph name="Z" format="2">
  <advance width="133"/>
  <unicode hex="005A"/>
  <outline>
    <contour>
      <point x="12" y="0" type="line"/>
      <point x="122" y="0" type="line" identifier="pzdvPTirLJ"/>
      <point x="122" y="248" type="line" identifier="91SxUS0iwG"/>
      <point x="113" y="248" type="line"/>
      <point x="113" y="8" type="line"/>
      <point x="21" y="8" type="line"/>
      <point x="21" y="236" type="line"/>
      <point x="118" y="1574" type="line" identifier="yyb1NCCI5w"/>
      <point x="118" y="1600" type="line" identifier="5FogYRSgkk"/>
      <point x="15" y="1600" type="line" identifier="svlFvrau4c"/>
      <point x="15" y="1355" type="line" identifier="LQ9fBsTy9K"/>
      <point x="23" y="1355" type="line"/>
      <point x="23" y="1592" type="line"/>
      <point x="109" y="1592" type="line"/>
      <point x="109" y="1574" type="line"/>
      <point x="12" y="239" type="line" identifier="teVKnpBcVb"/>
    </contour>
  </outline>
</glyph>
<glyph name="C.wide" format="2">
  <advance width="156"/>
  <outline>
    <contour>
      <point x="25" y="0" type="line" identifier="7lPhzTnk2Z"/>
      <point x="135" y="0" type="line" identifier="qJVLZGnkwh"/>
      <point x="135" y="8" type="line" identifier="Y750RHTvDj"/>
      <point x="34" y="8" type="line" identifier="L2LsGnXiZ2"/>
      <point x="34" y="1291" type="line" identifier="sUWsr03vF4"/>
      <point x="78" y="1592" type="line" identifier="dbOUe6OhxL"/>
      <point x="134" y="1592" type="line" identifier="5BjRbcud80"/>
      <point x="134" y="1600" type="line" identifier="9eJelv8BOw"/>
      <point x="70" y="1600" type="line" identifier="lfZev3ICaC"/>
      <point x="25" y="1293" type="line" identifier="V1EWIdPahq"/>
    </contour>
  </outline>
</glyph>
<glyph name="E.wide" format="2">
  <advance width="159.4064064064064"/>
  <outline>
    <contour>
      <point x="33.71871871871872" y="0.0" type="line" identifier="fZynkQ4XHB"/>
      <point x="135.76376376376376" y="0.0" type="line" identifier="FAQNpgUPxV"/>
      <point x="135.76376376376376" y="7.738738738738738" type="line" identifier="5cgTYOhATF"/>
      <point x="42.63763763763764" y="7.738738738738738" type="line" identifier="bWs42DaCgU"/>
      <point x="42.63763763763764" y="796.2672672672672" type="line" identifier="VtD2aADJmn"/>
      <point x="128.26526526526527" y="796.2672672672672" type="line" identifier="PpbsFdHAnS"/>
      <point x="128.26526526526527" y="803.7457457457457" type="line" identifier="8WuC5p8Ax5"/>
      <point x="42.63763763763764" y="803.7457457457457" type="line" identifier="m39IWn9ntA"/>
      <point x="42.63763763763764" y="1592.4044044044044" type="line" identifier="gQ21I4SHQg"/>
      <point x="134.76376376376376" y="1592.4044044044044" type="line" identifier="eqNb2VTwYs"/>
      <point x="134.76376376376376" y="1600.0" type="line" identifier="qYRmo14Il5"/>
      <point x="33.71871871871872" y="1600.0" type="line" identifier="HmJIcnLWfC"/>
    </contour>
  </outline>
</glyph>
<glyph name="F.wide" format="2">
  <advance width="152.52452452452454"/>
  <outline>
    <contour>
      <point x="33.71871871871872" y="0.0" type="line" identifier="oAgH2tA6DJ"/>
      <point x="42.63763763763764" y="0.0" type="line" identifier="zCZyMcW5ho"/>
      <point x="42.63763763763764" y="792.6236236236236" type="line" identifier="yHYqkMd7LI"/>
      <point x="132.76376376376376" y="792.6236236236236" type="line" identifier="NmB7yyQuio"/>
      <point x="132.76376376376376" y="800.6096096096096" type="line" identifier="wQk2C8zPHh"/>
      <point x="42.63763763763764" y="800.6096096096096" type="line" identifier="4cFHKQfHDt"/>
      <point x="42.63763763763764" y="1592.014014014014" type="line" identifier="ZvzwyrcwpS"/>
      <point x="134.72472472472472" y="1592.014014014014" type="line" identifier="4E754ovOIe"/>
      <point x="134.72472472472472" y="1600.0" type="line" identifier="NUrIjqOB7J"/>
      <point x="33.71871871871872" y="1600.0" type="line" identifier="TBAYuCfUFX"/>
    </contour>
  </outline>
</glyph>
<glyph name="G.wide" format="2">
  <advance width="152.97997997998"/>
  <outline>
    <contour>
      <point x="27.384384384384383" y="0.0" type="line" identifier="7lPhzTnk2Z"/>
      <point x="137.39039039039037" y="0.0" type="line" identifier="qJVLZGnkwh"/>
      <point x="137.39039039039037" y="802.5015015015015" type="line" identifier="uek1NNj7De"/>
      <point x="74.28128128128128" y="802.5015015015015" type="line" identifier="qcvimxjndX"/>
      <point x="74.28128128128128" y="795.6866866866867" type="line" identifier="EARaY3Su65"/>
      <point x="128.53553553553553" y="795.6866866866867" type="line" identifier="4m6dHLVhZq"/>
      <point x="128.53553553553553" y="7.985985985985986" type="line" identifier="Y750RHTvDj"/>
      <point x="36.30330330330331" y="7.985985985985986" type="line" identifier="L2LsGnXiZ2"/>
      <point x="36.30330330330331" y="1292.2662662662663" type="line" identifier="sUWsr03vF4"/>
      <point x="79.98998998999" y="1592.014014014014" type="line" identifier="dbOUe6OhxL"/>
      <point x="136.4064064064064" y="1592.014014014014" type="line" identifier="5BjRbcud80"/>
      <point x="136.4064064064064" y="1600.0" type="line" identifier="9eJelv8BOw"/>
      <point x="71.7927927927928" y="1600.0" type="line" identifier="lfZev3ICaC"/>
      <point x="27.384384384384383" y="1293.4264264264264" type="line" identifier="V1EWIdPahq"/>
    </contour>
  </outline>
</glyph>
<glyph name="K.alt" format="2">
  <advance width="159.15115115115114"/>
  <outline>
    <contour>
      <point x="42.290290290290294" y="0.0" type="line" identifier="wmNm7XZsaF"/>
      <point x="42.290290290290294" y="796.007007007007" type="line" identifier="O22liaP9Qk"/>
      <point x="98.17617617617617" y="796.007007007007" type="line" identifier="ELFBWIb1vd"/>
      <point x="134.48248248248248" y="769.5865865865866" type="line" identifier="DzXo67YEfw"/>
      <point x="134.48248248248248" y="0.0" type="line" identifier="aKpYWD78l2"/>
      <point x="143.40140140140142" y="0.0" type="line" identifier="ChS7KlqGi6"/>
      <point x="143.40140140140142" y="771.977977977978" type="line" identifier="sWLgkU8Vey"/>
      <point x="107.28128128128128" y="799.0" type="line" identifier="Of0iQc0wBG"/>
      <point x="107.28128128128128" y="801.0" type="line" identifier="j4jnmtDJYB"/>
      <point x="140.23323323323325" y="1600.0" type="line" identifier="dMJ1ywOKQQ"/>
      <point x="131.63463463463464" y="1600.0" type="line" identifier="08OWjR2YBJ"/>
      <point x="99.31131131131131" y="803.992992992993" type="line" identifier="g4YLdZEoM3"/>
      <point x="42.290290290290294" y="803.992992992993" type="line" identifier="uZuki3Isec"/>
      <point x="42.290290290290294" y="1600.0" type="line" identifier="nRfcNgqJ4H"/>
      <point x="33.371371371371374" y="1600.0" type="line" identifier="3XJlWt89ad"/>
      <point x="33.371371371371374" y="0.0" type="line" identifier="wdbO8kCovY"/>
    </contour>
  </outline>
</glyph>
<glyph name="R.alt" format="2">
  <advance width="173"/>
  <outline>
    <contour>
      <point x="42" y="803" type="line"/>
      <point x="42" y="1592" type="line"/>
      <point x="131" y="1592" type="line"/>
      <point x="131" y="803" type="line"/>
    </contour>
    <contour>
      <point x="151" y="0" type="line"/>
      <point x="105" y="796" type="line"/>
      <point x="140" y="797" type="line"/>
      <point x="140" y="1600" type="line"/>
      <point x="33" y="1600" type="line"/>
      <point x="33" y="0" type="line"/>
      <point x="42" y="0" type="line"/>
      <point x="42" y="795" type="line"/>
      <point x="97" y="795" type="line"/>
      <point x="143" y="0" type="line"/>
    </contour>
  </outline>
</glyph>
<glyph name="S.alt" format="2">
  <advance width="143"/>
  <outline>
    <contour>
      <point x="17" y="0" type="line" identifier="09VlJ0BjUX"/>
      <point x="118" y="0" type="line" identifier="EagWihqFM8"/>
      <point x="118" y="804" type="line" identifier="KfNuQA7eZe"/>
      <point x="23" y="804" type="line" identifier="At364YZFEy"/>
      <point x="23" y="1292" type="line"/>
      <point x="63" y="1592" type="line"/>
      <point x="109" y="1592" type="line" identifier="3ZUkG35meB"/>
      <point x="109" y="1258" type="line" identifier="DTOJhFIl15"/>
      <point x="118" y="1258" type="line" identifier="9KDcrfQ5Ui"/>
      <point x="118" y="1600" type="line" identifier="SaF9ojRFrW"/>
      <point x="56" y="1600" type="line"/>
      <point x="15" y="1292" type="line"/>
      <point x="15" y="796" type="line" identifier="3sQ8t8BZ6b"/>
      <point x="109" y="796" type="line" identifier="yiV6OCBLHg"/>
      <point x="109" y="8" type="line" identifier="9kdl9SYsn8"/>
      <point x="26" y="8" type="line" identifier="yZDWuX8LLe"/>
      <point x="26" y="247" type="line" identifier="jYb9001DTm"/>
      <point x="17" y="247" type="line" identifier="ho4DrS0rdW"/>
    </contour>
  </outline>
</glyph>
<glyph name="Z.wide" format="2">
  <advance width="134.47147147147146"/>
  <outline>
    <contour>
      <point x="12.72072072072072" y="0.0" type="line"/>
      <point x="122.74274274274273" y="0.0" type="line" identifier="pzdvPTirLJ"/>
      <point x="122.74274274274273" y="7.985985985985986" type="line"/>
      <point x="21.63963963963964" y="7.985985985985986" type="line"/>
      <point x="21.63963963963964" y="235.6846846846847" type="line"/>
      <point x="118.95595595595596" y="1476.3503503503503" type="line" identifier="yyb1NCCI5w"/>
      <point x="118.95595595595596" y="1600.0" type="line" identifier="5FogYRSgkk"/>
      <point x="15.72872872872873" y="1600.0" type="line" identifier="svlFvrau4c"/>
      <point x="15.72872872872873" y="1592.014014014014" type="line"/>
      <point x="109.98498498498498" y="1592.014014014014" type="line"/>
      <point x="109.98498498498498" y="1476.116116116116" type="line"/>
      <point x="12.72072072072072" y="238.6846846846847" type="line" identifier="teVKnpBcVb"/>
    </contour>
  </outline>
</glyph>
